<svg xmlns="http://www.w3.org/2000/svg" viewBox="134 86 232 232" fill="none">
  <!-- MAXFIT icon mark: house + flexing figure -->

  <!-- House roof + chimney -->
  <path d="M150,190 L250,96 L350,190" stroke="#138086" stroke-width="14" stroke-linecap="round" stroke-linejoin="round"/>
  <path d="M305,148 L305,112 L324,112" stroke="#138086" stroke-width="12" stroke-linecap="round" stroke-linejoin="round"/>

  <!-- Figure: front double-biceps flex -->
  <g fill="#F26F21">
    <path d="M202,210 L162,170 L200,140" stroke="#F26F21" stroke-width="30" stroke-linecap="round" stroke-linejoin="round" fill="none"/>
    <path d="M298,210 L338,170 L300,140" stroke="#F26F21" stroke-width="30" stroke-linecap="round" stroke-linejoin="round" fill="none"/>
    <circle cx="186" cy="190" r="17"/>
    <circle cx="314" cy="190" r="17"/>
    <circle cx="200" cy="140" r="15"/>
    <circle cx="300" cy="140" r="15"/>
    <circle cx="250" cy="170" r="25"/>
    <rect x="237" y="188" width="26" height="22" rx="5"/>
    <path d="M212,206 C228,198 238,197 250,197 C262,197 272,198 288,206 L282,256 L268,312 L232,312 L218,256 Z"/>
  </g>

  <!-- muscle definition -->
  <g stroke="#C9551A" stroke-width="3.5" stroke-linecap="round" fill="none">
    <path d="M250,208 L250,236"/>
    <path d="M224,226 Q237,238 250,233"/>
    <path d="M276,226 Q263,238 250,233"/>
    <path d="M250,242 L250,300"/>
    <path d="M250,262 L235,260 M250,262 L265,260"/>
    <path d="M250,282 L237,280 M250,282 L263,280"/>
  </g>
</svg>
